<?xml version="1.0"?>
<svg width="525" height="250"
     xmlns="http://www.w3.org/2000/svg"
     xmlns:svg="http://www.w3.org/2000/svg">
  <defs>
    <style type="text/css">
    <![CDATA[
    text {
      fill: #000000;
      stroke: #000000;
      stroke-width: 0;
      font-size: 20px;
    }
    text.small {
      font-size: 16px;
    }
    rect {
      fill: #ffffff;
      fill-opacity: 0;
      stroke: #000000;
      stroke-width: 2px;
    }
    ]]>
    </style>
  </defs>
  <g transform="translate(450,70)">
    <text y="0">YMM2</text>
    <text y="75">YMM3</text>
    <text y="150">YMM1</text>
  </g>
  <g transform="translate(25,45)">
    <text x="0" class="small">255</text>
    <text x="100" class="small">192</text>
    <text x="200" class="small">128</text>
    <text x="300" class="small">64</text>
    <text x="390" class="small">0</text>
  </g>
  <g transform="translate(25,50)">
    <rect x="0" width="100" height="25" />
    <rect x="100" width="100" height="25" />
    <rect x="200" width="100" height="25" />
    <rect x="300" width="100" height="25" />
    <text x="5" y="20">double 1.1</text>
    <text x="105" y="20">double 1.2</text>
    <text x="205" y="20">double 1.3</text>
    <text x="305" y="20">double 1.4</text>
  </g>
  <g transform="translate(70,105)">
    <text x="0">+</text>
    <text x="100">+</text>
    <text x="200">+</text>
    <text x="300">+</text>
  </g>
  <g transform="translate(25,125)">
    <rect x="0" width="100" height="25" />
    <rect x="100" width="100" height="25" />
    <rect x="200" width="100" height="25" />
    <rect x="300" width="100" height="25" />
    <text x="5" y="20">double 2.1</text>
    <text x="105" y="20">double 2.2</text>
    <text x="205" y="20">double 2.3</text>
    <text x="305" y="20">double 2.4</text>
  </g>
  <g transform="translate(70,185)">
    <text x="0">=</text>
    <text x="100">=</text>
    <text x="200">=</text>
    <text x="300">=</text>
  </g>
  <g transform="translate(25,200)">
    <rect x="0" width="100" height="25" />
    <rect x="100" width="100" height="25" />
    <rect x="200" width="100" height="25" />
    <rect x="300" width="100" height="25" />
    <text x="5" y="20">double 3.1</text>
    <text x="105" y="20">double 3.2</text>
    <text x="205" y="20">double 3.3</text>
    <text x="305" y="20">double 3.4</text>
  </g>
</svg>
