<?xml version="1.0"?>
<svg width="725" height="275"
     xmlns="http://www.w3.org/2000/svg"
     xmlns:svg="http://www.w3.org/2000/svg">
  <defs>
    <style type="text/css">
    <![CDATA[
    text {
      fill: #000000;
      stroke: #000000;
      stroke-width: 0;
      font-size: 20px;
    }
    text.small {
      font-size: 16px;
    }
    rect {
      fill: #ffffff;
      fill-opacity: 0;
      stroke: #000000;
      stroke-width: 2px;
    }
    rect.grey {
      fill: #cccccc;
      fill-opacity: 1.0;
    }
    ]]>
    </style>
  </defs>
  <text y="25" x="20">Sign</text>
  <g transform="translate(30,45)">
    <text x="0">79</text>
    <text x="220">63</text>
    <text x="635">0</text>
  </g>
  <g transform="translate(25,50)">
    <rect x="0" width="25" height="25" />
    <rect x="25" width="200" height="25" />
    <rect x="225" width="425" height="25" class="grey" />
    <g transform="translate(75,18)">
      <text x="0">Exponent</text>
      <text x="280">Significant / MMX0</text>
      <text x="600">R0</text>
    </g>
  </g>
  <g transform="translate(25,75)">
    <rect x="0" width="25" height="25" />
    <rect x="25" width="200" height="25" />
    <rect x="225" width="425" height="25" class="grey" />
    <g transform="translate(75,18)">
      <text x="0">Exponent</text>
      <text x="280">Significant / MMX1</text>
      <text x="600">R1</text>
    </g>
  </g>
  <g transform="translate(25,100)">
    <rect x="0" width="25" height="25" />
    <rect x="25" width="200" height="25" />
    <rect x="225" width="425" height="25" class="grey" />
    <g transform="translate(75,18)">
      <text x="0">Exponent</text>
      <text x="280">Significant / MMX2</text>
      <text x="600">R2</text>
    </g>
  </g>
  <g transform="translate(25,125)">
    <rect x="0" width="25" height="25" />
    <rect x="25" width="200" height="25" />
    <rect x="225" width="425" height="25" class="grey" />
    <g transform="translate(75,18)">
      <text x="0">Exponent</text>
      <text x="280">Significant / MMX3</text>
      <text x="600">R3</text>
    </g>
  </g>
  <g transform="translate(25,150)">
    <rect x="0" width="25" height="25" />
    <rect x="25" width="200" height="25" />
    <rect x="225" width="425" height="25" class="grey" />
    <g transform="translate(75,18)">
      <text x="0">Exponent</text>
      <text x="280">Significant / MMX4</text>
      <text x="600">R4</text>
    </g>
  </g>
  <g transform="translate(25,175)">
    <rect x="0" width="25" height="25" />
    <rect x="25" width="200" height="25" />
    <rect x="225" width="425" height="25" class="grey" />
    <g transform="translate(75,18)">
      <text x="0">Exponent</text>
      <text x="280">Significant / MMX5</text>
      <text x="600">R5</text>
    </g>
  </g>
  <g transform="translate(25,200)">
    <rect x="0" width="25" height="25" />
    <rect x="25" width="200" height="25" />
    <rect x="225" width="425" height="25" class="grey" />
    <g transform="translate(75,18)">
      <text x="0">Exponent</text>
      <text x="280">Significant / MMX6</text>
      <text x="600">R6</text>
    </g>
  </g>
  <g transform="translate(25,225)">
    <rect x="0" width="25" height="25" />
    <rect x="25" width="200" height="25" />
    <rect x="225" width="425" height="25" class="grey" />
    <g transform="translate(75,18)">
      <text x="0">Exponent</text>
      <text x="280">Significant / MMX7</text>
      <text x="600">R7</text>
    </g>
  </g>
</svg>
