<?xml version="1.0"?>
<svg width="525" height="475"
     xmlns="http://www.w3.org/2000/svg"
     xmlns:svg="http://www.w3.org/2000/svg">
  <defs>
    <style type="text/css">
    <![CDATA[
    text {
      fill: #000000;
      stroke: #000000;
      stroke-width: 0;
      font-size: 20px;
    }
    rect {
      fill: #ffffff;
      fill-opacity: 0;
      stroke: #000000;
      stroke-width: 2px;
    }
    rect.grey {
      fill: #cccccc;
      fill-opacity: 1.0;
    }
    ]]>
    </style>
  </defs>
  <g transform="translate(25,50)">
    <rect height="25" width="200" y="0" />
    <rect height="25" width="200" y="25" />
    <rect height="25" width="200" y="50" />
    <rect height="25" width="200" y="75" />
    <rect height="25" width="200" y="100" />
    <rect height="25" width="200" y="125" />
    <rect height="25" width="200" y="150" />
    <rect height="25" width="200" y="175" />
    <rect height="25" width="200" y="200" />
    <rect height="25" width="200" y="225" />
    <rect height="25" width="200" y="250" />
    <rect height="25" width="200" y="275" />
    <rect height="25" width="200" y="300" />
    <rect height="25" width="200" y="325" />
    <rect height="25" width="200" y="350" />
    <rect height="25" width="200" y="375" />
  </g>
  <g transform="translate(225,50)">
    <rect height="25" width="200" y="0" class="grey" />
    <rect height="25" width="200" y="25" class="grey" />
    <rect height="25" width="200" y="50" class="grey" />
    <rect height="25" width="200" y="75" class="grey" />
    <rect height="25" width="200" y="100" class="grey" />
    <rect height="25" width="200" y="125" class="grey" />
    <rect height="25" width="200" y="150" class="grey" />
    <rect height="25" width="200" y="175" class="grey" />
    <rect height="25" width="200" y="200" class="grey" />
    <rect height="25" width="200" y="225" class="grey" />
    <rect height="25" width="200" y="250" class="grey" />
    <rect height="25" width="200" y="275" class="grey" />
    <rect height="25" width="200" y="300" class="grey" />
    <rect height="25" width="200" y="325" class="grey" />
    <rect height="25" width="200" y="350" class="grey" />
    <rect height="25" width="200" y="375" class="grey" />
  </g>
  <g transform="translate(25,46)">
    <text x="0">255</text>
    <text x="170">128</text>
    <text x="390">0</text>
  </g>
  <g transform="translate(300,70)">
    <text y="0">XMM0</text>
    <text y="25">XMM1</text>
    <text y="50">XMM2</text>
    <text y="75">XMM3</text>
    <text y="100">XMM4</text>
    <text y="125">XMM5</text>
    <text y="150">XMM6</text>
    <text y="175">XMM7</text>
    <text y="200">XMM8</text>
    <text y="225">XMM9</text>
    <text y="250">XMM10</text>
    <text y="275">XMM11</text>
    <text y="300">XMM12</text>
    <text y="325">XMM13</text>
    <text y="350">XMM14</text>
    <text y="375">XMM15</text>
  </g>
  <g transform="translate(440,70)">
    <text y="0">YMM0</text>
    <text y="25">YMM1</text>
    <text y="50">YMM2</text>
    <text y="75">YMM3</text>
    <text y="100">YMM4</text>
    <text y="125">YMM5</text>
    <text y="150">YMM6</text>
    <text y="175">YMM7</text>
    <text y="200">YMM8</text>
    <text y="225">YMM9</text>
    <text y="250">YMM10</text>
    <text y="275">YMM11</text>
    <text y="300">YMM12</text>
    <text y="325">YMM13</text>
    <text y="350">YMM14</text>
    <text y="375">YMM15</text>
  </g>
</svg>
