<?xml version="1.0"?>
<svg width="1050" height="175"
     xmlns="http://www.w3.org/2000/svg"
     xmlns:svg="http://www.w3.org/2000/svg">
  <defs>
    <style type="text/css">
    <![CDATA[
    text {
      fill: #000000;
      stroke: #000000;
      stroke-width: 0;
      font-size: 20px;
    }
    text.blue {
      fill: #0000ff;
      stroke: #0000ff;
    }
    rect {
      fill: #ffffff;
      fill-opacity: 0;
      stroke: #000000;
      stroke-width: 2px;
    }
    rect.green {
      fill: #aaffaa;
      fill-opacity: 1.0;
    }
    rect.orange {
      fill: #ffd4aa;
      fill-opacity: 1.0;
    }
    rect.red {
      fill: #ffaaaa;
      fill-opacity: 1.0;
    }
    line {
      stroke: #000000;
      stroke-width: 2px;
    }
    line.blue {
      stroke: #0000ff;
    }
    ]]>
    </style>
  </defs>
  <g transform="translate(25,75)">
    <text y="0">bucket[ i ]</text>
    <text y="25">bucket[i-1]</text>
    <text y="50">bucket[i-2]</text>
  </g>
  <g transform="translate(150,55)">
    <g transform="translate(380,-25)">
      <rect x="0" y="0" width="500" height="25" class="green" />
      <line x1="25" y1="0" x2="25" y2="25" />
      <text x="8" y="18">1</text>
      <text x="220" y="18">addend</text>
    </g>
    <g>
      <line x1="25" y1="0" x2="25" y2="25" />
      <line x1="50" y1="0" x2="50" y2="25" />
      <rect x="0" width="500" height="25" />
      <rect x="155" width="60" height="25" class="orange" />
      <rect x="215" width="190" height="25" class="red" />
      <text x="8" y="18">1</text>
      <text x="33" y="18">1</text>
      <text x="83" y="18">part1</text>
      <text x="163" y="18">guard</text>
      <text x="283" y="18">part2</text>
      <text x="428" y="18">part3</text>
    </g>
    <g transform="translate(190,25)">
      <line x1="25" y1="0" x2="25" y2="25" />
      <line x1="50" y1="0" x2="50" y2="25" />
      <rect x="0" width="500" height="25" />
      <rect x="155" width="60" height="25" class="orange" />
      <rect x="215" width="190" height="25" class="red" />
      <text x="8" y="18">1</text>
      <text x="33" y="18">1</text>
      <text x="83" y="18">part1</text>
      <text x="163" y="18">guard</text>
      <text x="283" y="18">part2</text>
      <text x="428" y="18">part3</text>
    </g>
    <g transform="translate(380,50)">
      <line x1="25" y1="0" x2="25" y2="25" />
      <line x1="50" y1="0" x2="50" y2="25" />
      <rect x="0" width="500" height="25" />
      <rect x="155" width="60" height="25" class="orange" />
      <rect x="215" width="190" height="25" class="red" />
      <text x="8" y="18">1</text>
      <text x="33" y="18">1</text>
      <text x="83" y="18">part1</text>
      <text x="163" y="18">guard</text>
      <text x="283" y="18">part2</text>
      <text x="428" y="18">part3</text>
    </g>
    <g>
      <text x="150" y="100" class="blue">2 shift</text>
      <text x="700" y="100" class="blue">2 shift</text>
      <text x="650" y="-35" class="blue">max. error length</text>
      <line x1="0" y1="80" x2="380" y2="80" class="blue" />
      <line x1="535" y1="-30" x2="880" y2="-30" class="blue" />
      <line x1="535" y1="80" x2="880" y2="80" class="blue" />
    </g>
  </g>
</svg>
