<?xml version="1.0"?>
<svg width="1150" height="450"
     xmlns="http://www.w3.org/2000/svg"
     xmlns:svg="http://www.w3.org/2000/svg">
  <defs>
    <style type="text/css">
    <![CDATA[
    text {
      fill: #000000;
      stroke: #000000;
      stroke-width: 0;
      font-size: 20px;
    }
    text.blue {
      fill: #0000ff;
      stroke: #0000ff;
    }
    rect {
      fill: #ffffff;
      fill-opacity: 0;
      stroke: #000000;
      stroke-width: 2px;
    }
    rect.green {
      fill: #aaffaa;
      fill-opacity: 1.0;
    }
    rect.orange {
      fill: #ffd4aa;
      fill-opacity: 1.0;
    }
    rect.red {
      fill: #ffaaaa;
      fill-opacity: 1.0;
    }
    line {
      stroke: #000000;
      stroke-width: 2px;
    }
    line.blue {
      stroke: #0000ff;
    }
    ]]>
    </style>
  </defs>
  <g transform="translate(0,325)">
    <g transform="translate(485,0)">
      <rect height="25" width="500" x="0" class="green" />
      <line x1="25" y1="0" x2="25" y2="25" />
      <text x="5" y="18">1</text>
      <text x="220" y="18">addend</text>
    </g>
    <g transform="translate(160,25)">
      <rect height="25" width="500" />
      <rect height="25" width="150" x="200" class="red" />
      <line x1="25" y1="0" x2="25" y2="25" />
      <line x1="50" y1="0" x2="50" y2="25" />
      <text x="5" y="18">1</text>
      <text x="33" y="18">1</text>
      <text x="100" y="18">part1</text>
      <text x="250" y="18">part2</text>
      <text x="400" y="18">part3</text>
    </g>
    <g transform="translate(310,50)">
      <rect height="25" width="500" />
      <rect height="25" width="150" x="200" class="red" />
      <line x1="25" y1="0" x2="25" y2="25" />
      <line x1="50" y1="0" x2="50" y2="25" />
      <text x="5" y="18">1</text>
      <text x="33" y="18">1</text>
      <text x="100" y="18">part1</text>
      <text x="250" y="18">part2</text>
      <text x="400" y="18">part3</text>
    </g>
  </g>

  <g>
   <g>
    <rect height="25" width="500" y="232" x="633" stroke-width="2" fill="#aaffaa"/>
    <line y2="257" x2="658" y1="232" x1="658" stroke-width="2" fill="none"/>
    <text text-anchor="middle" y="250" x="646">1</text>
    <text text-anchor="middle" y="250" x="878">addend</text>
   </g>
   <g>
    <rect height="25" width="500" y="257" x="158" stroke-width="2" fill="#ffffff" stroke="#000000"/>
    <text text-anchor="middle" y="276" x="197"  stroke="#000000">1</text>
    <line fill="none" stroke-width="2" x1="183" y1="282" x2="183" y2="257" stroke="#000000"/>
    <line fill="none" stroke-width="2" x1="208" y1="282" x2="208" y2="257" stroke="#000000"/>
    <text text-anchor="middle" y="276" x="170"  stroke="#000000">1</text>
    <rect height="25" width="225" y="257" x="433" stroke-width="2" fill="#ffaaaa" stroke="#000000"/>
    <text text-anchor="middle" y="276" x="319"  stroke="#000000">part1</text>
    <text text-anchor="middle" y="277" x="552"  stroke="#000000">part2</text>
   </g>
   <g>
    <rect height="25" width="500" y="282.25" x="383" stroke-width="2" fill="#ffffff" stroke="#000000"/>
    <text text-anchor="middle" y="301.25" x="422"  stroke="#000000">1</text>
    <line fill="none" stroke-width="2" x1="408" y1="307.25" x2="408" y2="282.25" stroke="#000000"/>
    <line fill="none" stroke-width="2" x1="433" y1="307.25" x2="433" y2="282.25" stroke="#000000"/>
    <text text-anchor="middle" y="301.25" x="395"  stroke="#000000">1</text>
    <rect height="25" width="225" y="282.25" x="658" stroke-width="2" fill="#ffaaaa" stroke="#000000"/>
    <text text-anchor="middle" y="300.75" x="552.75"  stroke="#000000">part1</text>
    <text text-anchor="middle" y="302.25" x="777"  stroke="#000000">part2</text>
   </g>
  </g>
  <g>
   <g>
    <rect height="25" width="500" y="154" x="159" stroke-width="2" fill="#ffffff" stroke="#000000"/>
    <text text-anchor="middle" y="173" x="198"  stroke="#000000">1</text>
    <line fill="none" stroke-width="2" x1="184" y1="179" x2="184" y2="154" stroke="#000000"/>
    <line fill="none" stroke-width="2" x1="209" y1="179" x2="209" y2="154" stroke="#000000"/>
    <text text-anchor="middle" y="173" x="171"  stroke="#000000">1</text>
    <text text-anchor="middle" y="173" x="545"  stroke="#000000">part3</text>
    <rect height="25" width="225" y="154" x="209" stroke-width="2" fill="#ffaaaa" stroke="#000000"/>
    <text text-anchor="middle" y="173" x="314"  stroke="#000000">part2</text>
   </g>
   <g>
    <rect height="25" width="500" y="129" x="409" stroke-width="2" fill="#aaffaa"/>
    <line y2="154" x2="434" y1="129" x1="434" stroke-width="2" fill="none"/>
    <text text-anchor="middle" y="147" x="422">1</text>
    <text text-anchor="middle" y="147" x="654">addend</text>
   </g>
   <g>
    <rect height="25" width="500" y="179.25" x="384" stroke-width="2" fill="#ffffff" stroke="#000000"/>
    <text text-anchor="middle" y="198.25" x="423"  stroke="#000000">1</text>
    <line fill="none" stroke-width="2" x1="409" y1="204.25" x2="409" y2="179.25" stroke="#000000"/>
    <line fill="none" stroke-width="2" x1="434" y1="204.25" x2="434" y2="179.25" stroke="#000000"/>
    <text text-anchor="middle" y="198.25" x="396"  stroke="#000000">1</text>
    <text text-anchor="middle" y="198.25" x="770"  stroke="#000000">part3</text>
    <rect height="25" width="225" y="179.25" x="434" stroke-width="2" fill="#ffaaaa" stroke="#000000"/>
    <text text-anchor="middle" y="198.25" x="545"  stroke="#000000">part2</text>
   </g>
  </g>
  <g>
   <g>
    <rect height="25" width="500" y="23" x="636" stroke-width="2" fill="#aaffaa"/>
    <line y2="48" x2="661" y1="23" x1="661" stroke-width="2" fill="none"/>
    <text text-anchor="middle" y="41" x="649">1</text>
    <text text-anchor="middle" y="41" x="881">addend</text>
   </g>
   <g>
    <rect height="25" width="500" y="48.25" x="161.25" stroke-width="2" fill="#ffffff"/>
    <rect height="25" width="450" y="48.25" x="211.25" stroke-width="2" fill="#ffaaaa"/>
    <line fill="none" stroke-width="2" x1="186.25" y1="73.25" x2="186.25" y2="48.25" />
    <line fill="none" stroke-width="2" x1="211.25" y1="73.25" x2="211.25" y2="48.25"/>
    <text text-anchor="middle" y="67.25" x="173.25">1</text>
    <text text-anchor="middle" y="67.25" x="200.25">1</text>
    <text text-anchor="middle" y="67.25" x="405.25">part2</text>
   </g>
   <g>
    <rect height="25" width="500" y="73.25" x="611.25" stroke-width="2" fill="#ffffff"/>
    <rect height="25" width="450" y="73.25" x="661.25" stroke-width="2" fill="#ffaaaa"/>
    <line fill="none" stroke-width="2" x1="636.25" y1="98.25" x2="636.25" y2="73.25"/>
    <line fill="none" stroke-width="2" x1="661.25" y1="98.25" x2="661.25" y2="73.25"/>
    <text text-anchor="middle" y="92.25" x="623.25">1</text>
    <text text-anchor="middle" y="92.25" x="650.25">1</text>
    <text text-anchor="middle" y="92.25" x="855.25">part2</text>
   </g>
  </g>
  <g transform="translate(25,68)">
    <text x="0" y="0">a)</text>
    <text x="30" y="0">bucket[ i ]</text>
    <text x="30" y="25">bucket[i-1]</text>
    <g transform="translate(0,100)">
      <text x="0" y="0">b)</text>
      <text x="30" y="0">bucket[ i ]</text>
      <text x="30" y="25">bucket[i-1]</text>
    </g>
    <g transform="translate(0,200)">
      <text x="0" y="0">c)</text>
      <text x="30" y="0">bucket[ i ]</text>
      <text x="30" y="25">bucket[i-1]</text>
    </g>
    <g transform="translate(0,300)">
      <text x="0" y="0">d)</text>
      <text x="30" y="0">bucket[ i ]</text>
      <text x="30" y="25">bucket[i-1]</text>
    </g>
  </g>
</svg>
